# xmcd
#
# Track frame offsets:
#	150
#	18165
#	26021
#	42915
#	48541
#	68227
#	74978
#	91008
#	100853
#	108727
#	121665
#	139103
#	154008
#	170181
#	184102
#	203101
#	217849
#	239057
#	267176
#	277900
#	307009
#
# Disc length: 4340 seconds
#
# Revision: 0
# Processed by: cddbd v1.5.2PL0 Copyright (c) Steve Scherf et al.
# Submitted via: audiograbber 1.83.01
#
DISCID=3410f215
DTITLE=Mr. P!nk - House Session Mainstation 2009
DYEAR=2009
DGENRE=House
TTITLE0=Mr. P!nk feat. Saporo - Can You Fell It (Club Mix)
TTITLE1=Mike Candys and Jack Holiday - Insomnia (Chris Crime Infinity Remix)
TTITLE2=Spencer and Hill - So Dance (Club Mix)
TTITLE3=CJ Stone - Shining Star (Club Mix)
TTITLE4=Club Crashers - Destination Calabria (Mr. P!nk vs Mike Candys Remix)
TTITLE5=Giulia Siegel feat. Kamala - Higher (Jerry Ropero Extendend Mix)
TTITLE6=Christopher S feat. Sandra Wild - The Way You Make Me Feel (Mr. P!nk Re
TTITLE6=call Remix)
TTITLE7=DJ Antoine - Troverò (Original Mix)
TTITLE8=Mike Candys - La Disco Loca (Mr. P!nk Directors Cut Remix)
TTITLE9=Sir Colin feat. Matthew Tasa - Passion (Steve Murano Remix)
TTITLE10=Chuckie - Aftershock (Can Fight The Feeling)
TTITLE11=DJ Tatana - Words (Mr. P!nk Remix)
TTITLE12=Mr. P!nk - Infinity (Mr. P!nk Recall 2009 Mix)
TTITLE13=Dance 2 Trance - P.ower Of A.merican N.atives (Guenta K. Remix long)
TTITLE14=Mr. P!nk feat. Gomez - Don't Give Up (Christopher S and Mike Candys Remi
TTITLE14=x)
TTITLE15=Ron Van Den Beuken feat. Nicole Tyler - Faraway (Harry's Game)
TTITLE16=Mad Mark - Another Day (Extendend Mix)
TTITLE17=House Rockerz - Guardian Angel (Club Mix)
TTITLE18=Mr. P!nk - On Y Va (Mr. P!nk Club Mix)
TTITLE19=Dada, Obernik, Harris - Stereo Flo (The Drill Remix)
TTITLE20=Darwin and Backwall - Bob-Omb (Original Mix)
EXTD=
EXTT0=
EXTT1=
EXTT2=
EXTT3=
EXTT4=
EXTT5=
EXTT6=
EXTT7=
EXTT8=
EXTT9=
EXTT10=
EXTT11=
EXTT12=
EXTT13=
EXTT14=
EXTT15=
EXTT16=
EXTT17=
EXTT18=
EXTT19=
EXTT20=
PLAYORDER=
